<svg width="103" height="103" viewBox="0 0 103 103" fill="none" xmlns="http://www.w3.org/2000/svg">
              <g clip-path="url(#clip0_0_1)">
              <path d="M81.5417 21.4557H72.5292C71.5331 16.6122 68.8976 12.2602 65.067 9.13314C61.2364 6.00612 56.4449 4.2953 51.5 4.28906H21.4583C15.7693 4.29588 10.3153 6.55885 6.29253 10.5816C2.26978 14.6043 0.00681456 20.0584 0 25.7474L0 64.3724C0.0107884 68.2161 1.31127 71.9451 3.69313 74.9619C6.075 77.9787 9.40043 80.1089 13.1368 81.0112C12.7324 83.159 12.8015 85.3691 13.3393 87.4874C13.8772 89.6057 14.8708 91.5811 16.2508 93.2758C17.6309 94.9704 19.3641 96.3435 21.3295 97.2993C23.295 98.255 25.4453 98.7703 27.6305 98.8093C29.8156 98.8482 31.983 98.4099 33.9812 97.5248C35.9795 96.6397 37.7606 95.3293 39.2001 93.6849C40.6397 92.0404 41.7031 90.1017 42.3161 88.0039C42.9291 85.9062 43.0769 83.6999 42.7493 81.5391H60.2679C60.1574 82.2492 60.0986 82.9663 60.0919 83.6849C60.0919 87.6687 61.6745 91.4893 64.4914 94.3062C67.3084 97.1232 71.129 98.7057 75.1127 98.7057C79.0965 98.7057 82.9171 97.1232 85.7341 94.3062C88.551 91.4893 90.1336 87.6687 90.1336 83.6849C90.1287 82.7875 90.0411 81.8925 89.8718 81.0112C93.6066 80.1072 96.93 77.9764 99.3102 74.9597C101.69 71.943 102.99 68.215 103 64.3724V42.9141C102.993 37.2251 100.73 31.771 96.7075 27.7483C92.6847 23.7255 87.2307 21.4625 81.5417 21.4557ZM94.4167 42.9141V47.2057H72.9583V30.0391H81.5417C84.9563 30.0391 88.2311 31.3955 90.6457 33.8101C93.0602 36.2246 94.4167 39.4994 94.4167 42.9141ZM8.58333 64.3724V25.7474C8.58333 22.3327 9.9398 19.0579 12.3543 16.6434C14.7689 14.2289 18.0437 12.8724 21.4583 12.8724H51.5C54.9147 12.8724 58.1895 14.2289 60.604 16.6434C63.0185 19.0579 64.375 22.3327 64.375 25.7474V72.9557H17.1667C14.8902 72.9557 12.707 72.0514 11.0973 70.4417C9.48765 68.832 8.58333 66.6488 8.58333 64.3724ZM34.3333 83.6849C34.3333 85.3922 33.6551 87.0296 32.4478 88.2369C31.2406 89.4442 29.6032 90.1224 27.8958 90.1224C26.1885 90.1224 24.5511 89.4442 23.3438 88.2369C22.1366 87.0296 21.4583 85.3922 21.4583 83.6849C21.461 82.9514 21.5962 82.2244 21.8575 81.5391H33.9342C34.1955 82.2244 34.3307 82.9514 34.3333 83.6849ZM75.1042 90.1224C73.3968 90.1224 71.7594 89.4442 70.5522 88.2369C69.3449 87.0296 68.6667 85.3922 68.6667 83.6849C68.6685 82.9513 68.8038 82.2242 69.0658 81.5391H81.1425C81.4045 82.2242 81.5398 82.9513 81.5417 83.6849C81.5417 85.3922 80.8634 87.0296 79.6562 88.2369C78.4489 89.4442 76.8115 90.1224 75.1042 90.1224ZM85.8333 72.9557H72.9583V55.7891H94.4167V64.3724C94.4167 66.6488 93.5124 68.832 91.9027 70.4417C90.293 72.0514 88.1098 72.9557 85.8333 72.9557Z" fill="#D51A49"/>
              </g>
              <mask id="mask0_0_1" style="mask-type:luminance" maskUnits="userSpaceOnUse" x="25" y="22" width="26" height="41">
              <path d="M50.3086 22H25V63H50.3086V22Z" fill="white"/>
              </mask>
              <g mask="url(#mask0_0_1)">
              <path fill-rule="evenodd" clip-rule="evenodd" d="M29.8917 35.779C30.0935 36.0243 30.4779 35.9904 30.6339 35.7136L38.232 22.2302C38.4142 21.907 38.8856 21.9286 39.0376 22.2671L45.5652 36.8081C45.6815 37.0672 46.0043 37.1563 46.2365 36.9933L49.5975 34.6349C49.8972 34.4247 50.3086 34.6395 50.3086 35.0061V37.3072V38.2133V50.2189V51.1249H50.2768C49.8133 57.7078 44.3392 62.904 37.6543 62.904C30.9694 62.904 25.4952 57.7078 25.0318 51.1249H25V50.2189V38.2133V37.3072V31.0936C25 30.6687 25.531 30.4776 25.8006 30.8054L29.8917 35.779ZM39.0252 40.9191L38.3322 42.0574V43.4137H44.2074C45.2059 43.4137 46.0152 44.225 46.0152 45.2259V53.8153C46.0152 54.8161 45.2059 55.6275 44.2074 55.6275H31.3272C30.3287 55.6275 29.5194 54.8161 29.5194 53.8153V45.2259C29.5194 44.225 30.3287 43.4137 31.3272 43.4137H37.2024V42.0574L36.5094 40.9191C36.4174 40.7682 36.5258 40.5746 36.7023 40.5746H38.8324C39.0088 40.5746 39.1172 40.7682 39.0252 40.9191Z" fill="#E6134C"/>
              <path d="M37.3428 51.4935L35.7957 51.2487C35.6857 51.2312 35.574 51.2677 35.4952 51.3468C35.3727 51.4696 35.3588 51.6641 35.4628 51.803L35.5126 51.8696C35.5818 51.962 35.6844 52.0241 35.7984 52.0419L37.2633 52.2739C37.5972 52.3267 37.9374 52.3267 38.2713 52.2739L39.6794 52.051C39.8267 52.0277 39.9536 51.9346 40.0202 51.8009L40.0534 51.7343C40.107 51.627 40.099 51.4992 40.0326 51.3993C39.9603 51.2906 39.8316 51.2342 39.7029 51.2546L38.1918 51.4935C37.9106 51.5382 37.6241 51.5382 37.3428 51.4935Z" fill="#E6134C"/>
              <path d="M32.796 50.5415C33.4823 50.5415 34.0388 49.9837 34.0388 49.2956C34.0388 48.6076 33.4823 48.0498 32.796 48.0498C32.1095 48.0498 31.5531 48.6076 31.5531 49.2956C31.5531 49.9837 32.1095 50.5415 32.796 50.5415Z" fill="#E6134C"/>
              <path d="M42.7386 50.5415C43.425 50.5415 43.9814 49.9837 43.9814 49.2956C43.9814 48.6076 43.425 48.0498 42.7386 48.0498C42.0522 48.0498 41.4957 48.6076 41.4957 49.2956C41.4957 49.9837 42.0522 50.5415 42.7386 50.5415Z" fill="#E6134C"/>
              </g>
              <defs>
              <clipPath id="clip0_0_1">
              <rect width="103" height="103" fill="white"/>
              </clipPath>
              </defs>
            </svg>