<svg width="103" height="103" viewBox="0 0 103 103" fill="none" xmlns="http://www.w3.org/2000/svg">
<g clip-path="url(#clip0_124_171)">
<path d="M55.792 60.875V34.3353C55.792 33.1971 55.3399 32.1055 54.535 31.3007C53.7302 30.4958 52.6386 30.0437 51.5004 30.0437C50.3621 30.0437 49.2705 30.4958 48.4657 31.3007C47.6609 32.1055 47.2087 33.1971 47.2087 34.3353V60.875C44.3524 61.8871 41.9458 63.8761 40.4139 66.4907C38.882 69.1053 38.3234 72.1772 38.8369 75.1636C39.3504 78.1501 40.9029 80.859 43.2201 82.8118C45.5373 84.7646 48.4701 85.8356 51.5004 85.8356C54.5307 85.8356 57.4635 84.7646 59.7807 82.8118C62.0978 80.859 63.6503 78.1501 64.1638 75.1636C64.6773 72.1772 64.1187 69.1053 62.5869 66.4907C61.055 63.8761 58.6483 61.8871 55.792 60.875ZM72.9587 51.9784V21.4604C72.0532 -6.90323 30.939 -6.8646 30.042 21.4604V51.9784C25.902 56.2038 23.1016 61.5574 21.9919 67.368C20.8823 73.1785 21.5129 79.1874 23.8045 84.641C26.0961 90.0947 29.9469 94.7504 34.8739 98.0243C39.8009 101.298 45.5848 103.045 51.5004 103.045C57.4159 103.045 63.1999 101.298 68.1268 98.0243C73.0538 94.7504 76.9046 90.0947 79.1962 84.641C81.4879 79.1874 82.1184 73.1785 81.0088 67.368C79.8992 61.5574 77.0987 56.2038 72.9587 51.9784ZM51.5004 94.4186C47.1809 94.3701 42.9759 93.0238 39.4315 90.5545C35.8872 88.0853 33.1673 84.6071 31.6253 80.5721C30.0833 76.537 29.7904 72.1314 30.7846 67.9277C31.7788 63.724 34.0143 59.9164 37.2005 56.9996C37.6488 56.5972 38.0074 56.1049 38.2529 55.5548C38.4983 55.0047 38.6253 54.409 38.6254 53.8066V21.4604C38.6254 18.0457 39.9818 14.7709 42.3964 12.3564C44.8109 9.94184 48.0857 8.58538 51.5004 8.58538C54.915 8.58538 58.1898 9.94184 60.6044 12.3564C63.0189 14.7709 64.3754 18.0457 64.3754 21.4604V53.8066C64.3755 54.409 64.5024 55.0047 64.7479 55.5548C64.9934 56.1049 65.3519 56.5972 65.8002 56.9996C68.9864 59.9164 71.2219 63.724 72.2161 67.9277C73.2104 72.1314 72.9175 76.537 71.3754 80.5721C69.8334 84.6071 67.1135 88.0853 63.5692 90.5545C60.0248 93.0238 55.8198 94.3701 51.5004 94.4186Z" fill="#D51A49"/>
</g>
<defs>
<clipPath id="clip0_124_171">
<rect width="103" height="103" fill="white"/>
</clipPath>
</defs>
</svg>
