<svg width="37" height="30" viewBox="0 0 37 30" fill="none" xmlns="http://www.w3.org/2000/svg">
<path d="M36.6834 8.3281C36.4577 5.81859 35.9683 3.0472 34.1691 1.58897C32.7735 0.458556 30.9413 0.417115 29.2311 0.418999C25.6145 0.422767 21.9979 0.426546 18.3813 0.430314C14.9032 0.434082 11.425 0.437838 7.94683 0.441606C6.49361 0.441606 5.08156 0.313494 3.73214 1.0313C2.5722 1.64926 1.66598 2.82302 1.12226 4.12864C0.364343 5.94672 0.204543 8.00407 0.113922 10.0143C-0.0541377 13.6731 -0.0360023 17.3431 0.166658 20.9981C0.313298 23.6678 0.687291 26.6163 2.49146 28.3175C4.09132 29.8247 6.3486 29.8982 8.42133 29.9001C15.0053 29.9058 21.5893 29.9114 28.1733 29.9189C29.0169 29.9189 29.8984 29.902 30.7585 29.7946C32.4522 29.5855 34.0653 29.0316 35.1527 27.5978C36.25 26.1528 36.5318 24.1388 36.6999 22.2341C37.1052 17.6144 37.1002 12.9458 36.6834 8.3281ZM14.5737 21.6481V8.68984L24.3887 15.169L14.5737 21.6481Z" fill="white"/>
</svg>
