<svg width="205" height="205" viewBox="0 0 205 205" fill="none" xmlns="http://www.w3.org/2000/svg">
<path fill-rule="evenodd" clip-rule="evenodd" d="M86.8553 35.9345C94.3258 28.836 106.262 29.4772 112.922 37.3348L130.066 57.5629C129.56 57.9043 129.079 58.2995 128.633 58.7484L110.014 77.4569C109.551 77.9222 109.147 78.4231 108.8 78.9509L86.9697 58.6208C80.3922 52.4954 80.3399 42.1254 86.8553 35.9345ZM112.358 79.7902C108.651 83.5158 108.679 89.5275 112.422 93.2183L113.185 93.971C116.928 97.6616 122.967 97.6336 126.674 93.908L145.293 75.1997C149 71.4743 148.972 65.4624 145.229 61.7718L144.466 61.0189C140.724 57.3283 134.684 57.3565 130.977 61.0819L112.358 79.7902ZM115.456 81.9754C113.019 84.4236 113.038 88.3742 115.497 90.7995C117.957 93.2246 121.925 93.2062 124.362 90.758L141.985 73.0497C144.421 70.6015 144.402 66.6509 141.943 64.2258C139.484 61.8005 135.515 61.8192 133.079 64.2671L115.456 81.9754ZM126.927 103.011L130.031 111.046C130.718 112.823 132.102 114.245 133.866 114.984L147.462 120.683C150.709 122.044 154.446 120.489 155.754 117.233C157.033 114.05 155.507 110.435 152.329 109.117L146.67 106.77C144.958 106.06 143.597 104.705 142.884 103.001L139.697 95.3867C138.738 93.0974 139.138 90.4677 140.733 88.5627C142.661 86.2591 145.898 85.5228 148.64 86.7633L150.443 87.5792L154.371 89.3566C155.989 90.0888 157.268 91.4035 157.952 93.0365L160.421 98.9357C161.759 102.132 165.243 103.874 168.617 103.034L169.314 102.861C173.335 101.86 175.618 97.6315 174.239 93.7407L170.762 83.9337C170.133 82.1616 168.816 80.7153 167.105 79.9204L156.559 75.0216C153.931 73.8009 150.821 74.311 148.725 76.3063L128.63 95.4406C126.58 97.3916 125.909 100.377 126.927 103.011ZM99.4645 119.666C86.52 119.666 76.0261 130.112 76.0261 142.998V173.329H122.903V142.998C122.903 130.112 112.409 119.666 99.4645 119.666ZM79.9085 49.6712L49.2513 66.791C41.0221 71.3864 38.3731 81.9277 43.4594 89.8388L44.3301 91.1932C48.8614 98.2412 58.551 99.7837 65.0645 94.4944L94.9294 70.2415L84.8746 60.8776C81.6157 57.8426 79.9586 53.7656 79.9085 49.6712ZM75.4164 134.062L57.2755 99.3726C60.994 99.8868 64.9228 98.9316 68.0973 96.3537L85.3596 82.3353L103.734 117.472C101.917 117.022 100.016 116.783 98.0585 116.783C87.2166 116.783 78.0942 124.111 75.4164 134.062Z" fill="#D51A49"/>
<path fill-rule="evenodd" clip-rule="evenodd" d="M102.5 192C151.929 192 192 151.929 192 102.5C192 53.0705 151.929 13 102.5 13C53.0705 13 13 53.0705 13 102.5C13 151.929 53.0705 192 102.5 192ZM102.5 205C159.109 205 205 159.109 205 102.5C205 45.8908 159.109 0 102.5 0C45.8908 0 0 45.8908 0 102.5C0 159.109 45.8908 205 102.5 205Z" fill="#D51A49"/>
</svg>
