<svg width="205" height="205" viewBox="0 0 205 205" fill="none" xmlns="http://www.w3.org/2000/svg">
<path d="M78.4239 46.4425V38.1L77.1523 38.389C72.9377 39.347 69.216 41.7935 66.6785 45.2741L64.1442 48.75L73.069 52.3L73.2379 52.0314C74.6009 49.863 76.3598 47.9674 78.4239 46.4425Z" fill="#D51A49"/>
<path d="M76.639 77.15C76.639 63.4257 87.8271 52.3 101.628 52.3H105.198C119 52.3 130.188 63.4257 130.188 77.15V148.15H76.639V77.15Z" fill="#D51A49"/>
<path d="M76.639 155.25H130.188V165.9C130.188 169.821 126.991 173 123.048 173H83.7788C79.8355 173 76.639 169.821 76.639 165.9V155.25Z" fill="#D51A49"/>
<path d="M98.0586 36.325C98.0586 33.3841 100.456 31 103.413 31C106.371 31 108.768 33.3841 108.768 36.325V55.85H98.0586V36.325Z" fill="#D51A49"/>
<path d="M140 33.2864L102.366 38.8794C99.9872 39.233 98.3468 41.4375 98.7024 43.8033C99.0579 46.1691 101.275 47.8004 103.654 47.4468L141.288 41.8538C143.667 41.5002 145.307 39.2957 144.952 36.9299C144.596 34.5641 142.379 32.9329 140 33.2864Z" fill="#D51A49"/>
<path d="M140.709 42.5734L103.736 37.0786C101.322 36.7199 99.0727 38.3751 98.7119 40.7758C98.3511 43.1764 100.016 45.4134 102.43 45.7721L139.403 51.2669C141.817 51.6257 144.066 49.9704 144.427 47.5698C144.788 45.1691 143.123 42.9322 140.709 42.5734Z" fill="#D51A49"/>
<path d="M140.709 42.5734L103.736 37.0786C101.322 36.7199 99.0727 38.3751 98.7119 40.7758C98.3511 43.1764 100.016 45.4134 102.43 45.7721L139.403 51.2669C141.817 51.6257 144.066 49.9704 144.427 47.5698C144.788 45.1691 143.123 42.9322 140.709 42.5734Z" fill="#D51A49"/>
<path d="M59.0596 49.9082C59.9136 48.2544 61.9061 47.5359 63.6277 48.261L74.6402 52.8993C76.3334 53.6124 77.2048 55.4878 76.6536 57.2322L56.4119 121.301C55.7753 123.316 53.521 124.336 51.5752 123.49L30.1401 114.164C28.254 113.344 27.4549 111.111 28.3952 109.29L59.0596 49.9082Z" fill="#D51A49"/>
<path d="M99.8435 38.1H78.4239V46.4425H99.8435V38.1Z" fill="#D51A49"/>
<path fill-rule="evenodd" clip-rule="evenodd" d="M102.5 192C151.929 192 192 151.929 192 102.5C192 53.0705 151.929 13 102.5 13C53.0705 13 13 53.0705 13 102.5C13 151.929 53.0705 192 102.5 192ZM102.5 205C159.109 205 205 159.109 205 102.5C205 45.8908 159.109 0 102.5 0C45.8908 0 0 45.8908 0 102.5C0 159.109 45.8908 205 102.5 205Z" fill="#D51A49"/>
</svg>
