<svg width="103" height="103" viewBox="0 0 103 103" fill="none" xmlns="http://www.w3.org/2000/svg">
              <g clip-path="url(#clip0_124_172)">
              <path d="M51.5 0C41.3143 0 31.3573 3.02042 22.8882 8.67932C14.419 14.3382 7.81814 22.3814 3.92023 31.7918C0.0223142 41.2022 -0.997558 51.5571 0.989581 61.5472C2.97672 71.5372 7.88162 80.7136 15.084 87.916C22.2864 95.1184 31.4629 100.023 41.4529 102.01C51.4429 103.998 61.7978 102.978 71.2082 99.0798C80.6186 95.1819 88.6618 88.581 94.3207 80.1119C99.9796 71.6427 103 61.6857 103 51.5C102.985 37.8459 97.5546 24.7552 87.8997 15.1003C78.2448 5.44539 65.1541 0.014768 51.5 0V0ZM51.5 94.4167C43.0119 94.4167 34.7144 91.8997 27.6568 87.1839C20.5992 82.4682 15.0985 75.7655 11.8502 67.9235C8.60193 60.0815 7.75204 51.4524 9.40799 43.1274C11.0639 34.8024 15.1514 27.1553 21.1534 21.1533C27.1554 15.1513 34.8024 11.0639 43.1274 9.40797C51.4524 7.75202 60.0815 8.60191 67.9235 11.8502C75.7655 15.0984 82.4682 20.5992 87.1839 27.6568C91.8997 34.7144 94.4167 43.0119 94.4167 51.5C94.4042 62.8784 89.8786 73.7871 81.8329 81.8329C73.7872 89.8786 62.8784 94.4042 51.5 94.4167ZM60.0834 51.5C60.0902 53.0083 59.6994 54.4918 58.9504 55.801C58.2014 57.1102 57.1207 58.199 55.817 58.9576C54.5133 59.7162 53.0327 60.1178 51.5244 60.1221C50.0161 60.1264 48.5333 59.7331 47.2253 58.9819C45.9173 58.2307 44.8304 57.1481 44.074 55.8431C43.3177 54.5381 42.9185 53.0569 42.9168 51.5486C42.9151 50.0402 43.3108 48.5581 44.0643 47.2514C44.8177 45.9447 45.9021 44.8596 47.2084 44.1055V25.75H55.7917V44.1055C57.0926 44.8535 58.1739 45.9305 58.9272 47.2284C59.6804 48.5262 60.0792 49.9994 60.0834 51.5Z" fill="#D51A49"/>
              </g>
              <defs>
              <clipPath id="clip0_124_172">
              <rect width="103" height="103" fill="white"/>
              </clipPath>
              </defs>
            </svg>