<svg width="103" height="103" viewBox="0 0 103 103" fill="none" xmlns="http://www.w3.org/2000/svg">
              <g clip-path="url(#clip0_124_173)">
              <path fill-rule="evenodd" clip-rule="evenodd" d="M74.4995 30.4708H28.1505C22.3745 30.4708 17.4156 34.5801 16.3429 40.2556L8.79877 80.1683C7.39999 87.5684 13.0751 94.4166 20.6064 94.4166H82.0434C89.5748 94.4166 95.2497 87.5684 93.851 80.1683L86.3071 40.2556C85.2342 34.5801 80.2752 30.4708 74.4995 30.4708ZM28.1505 21.8875C18.2488 21.8875 9.74792 28.932 7.9089 38.6614L0.364766 78.5739C-2.03311 91.2601 7.69564 103 20.6064 103H82.0434C94.9544 103 104.683 91.2601 102.285 78.5739L94.7411 38.6615C92.9021 28.932 84.4012 21.8875 74.4995 21.8875H28.1505Z" fill="#D51A49"/>
              <path fill-rule="evenodd" clip-rule="evenodd" d="M51.5 21.0292C55.1724 21.0292 57.9375 18.1271 57.9375 14.8062C57.9375 11.4854 55.1724 8.58333 51.5 8.58333C47.8276 8.58333 45.0625 11.4854 45.0625 14.8062C45.0625 18.1271 47.8276 21.0292 51.5 21.0292ZM51.5 29.6125C59.7958 29.6125 66.5209 22.9835 66.5209 14.8062C66.5209 6.62899 59.7958 0 51.5 0C43.2042 0 36.4792 6.62899 36.4792 14.8062C36.4792 22.9835 43.2042 29.6125 51.5 29.6125Z" fill="#D51A49"/>
              <path d="M33.6797 73.6772C32.7355 73.6772 32.0059 73.4197 31.4909 72.9047C30.9759 72.3683 30.7184 71.628 30.7184 70.6838V53.3991C30.7184 52.412 30.9759 51.6717 31.4909 51.1782C32.0059 50.6632 32.7355 50.4057 33.6797 50.4057C34.6453 50.4057 35.3749 50.6632 35.8684 51.1782C36.3834 51.6717 36.6409 52.412 36.6409 53.3991V60.416H36.7053L44.5269 51.7897C44.9346 51.3606 45.3638 51.028 45.8144 50.7919C46.2865 50.5344 46.8122 50.4057 47.3916 50.4057C48.2929 50.4057 48.9366 50.6417 49.3229 51.1138C49.7306 51.5644 49.913 52.1009 49.8701 52.7232C49.8486 53.324 49.6018 53.8819 49.1297 54.3969L41.3403 62.6691V60.2551L49.516 69.4929C50.0739 70.1152 50.3529 70.7589 50.3529 71.4241C50.3529 72.0679 50.1276 72.6043 49.6769 73.0335C49.2478 73.4627 48.604 73.6772 47.7457 73.6772C47.0161 73.6772 46.426 73.5378 45.9754 73.2588C45.5462 72.9584 45.0741 72.5185 44.5591 71.9391L36.7053 63.1519H36.6409V70.6838C36.6409 71.628 36.3942 72.3683 35.9006 72.9047C35.4071 73.4197 34.6668 73.6772 33.6797 73.6772ZM64.372 73.7416C61.7756 73.7416 59.5654 73.2588 57.7414 72.2932C55.9389 71.3276 54.5656 69.9757 53.6214 68.2376C52.6772 66.4994 52.2051 64.4716 52.2051 62.1541C52.2051 60.3516 52.4841 58.7315 53.042 57.2938C53.6214 55.8346 54.4475 54.5901 55.5205 53.5601C56.5934 52.5086 57.9023 51.7146 59.4473 51.1782C61.0138 50.6203 62.7841 50.3413 64.7583 50.3413C65.8312 50.3413 66.9256 50.4486 68.0414 50.6632C69.1572 50.8563 70.2516 51.2318 71.3245 51.7897C71.8824 52.0472 72.258 52.412 72.4511 52.8841C72.6657 53.3347 72.73 53.8176 72.6442 54.3326C72.5798 54.8261 72.3974 55.2875 72.097 55.7166C71.8181 56.1243 71.4318 56.4033 70.9383 56.5535C70.4447 56.6822 69.8868 56.6071 69.2645 56.3282C68.6208 56.0278 67.9234 55.8025 67.1723 55.6522C66.4213 55.4806 65.6273 55.3947 64.7905 55.3947C63.3528 55.3947 62.1511 55.6522 61.1855 56.1672C60.2413 56.6822 59.5332 57.444 59.0611 58.4526C58.589 59.4611 58.353 60.695 58.353 62.1541C58.353 64.3429 58.8894 65.9952 59.9623 67.111C61.0353 68.2268 62.6232 68.7847 64.7261 68.7847C65.3698 68.7847 66.0672 68.7204 66.8183 68.5916C67.5908 68.4629 68.3633 68.2805 69.1358 68.0444L68.0414 70.2654V64.7613H65.7883C65.0587 64.7613 64.49 64.5789 64.0823 64.2141C63.6961 63.8493 63.503 63.3343 63.503 62.6691C63.503 62.0039 63.6961 61.4996 64.0823 61.1563C64.49 60.7915 65.0587 60.6091 65.7883 60.6091H70.552C71.3031 60.6091 71.8717 60.813 72.258 61.2207C72.6657 61.6069 72.8695 62.1756 72.8695 62.9266V70.0401C72.8695 70.6838 72.73 71.231 72.4511 71.6816C72.1936 72.1322 71.7752 72.4541 71.1958 72.6472C70.1872 72.9906 69.0929 73.2588 67.9126 73.4519C66.7324 73.6451 65.5522 73.7416 64.372 73.7416Z" fill="#D51A49"/>
              <path d="M33.6796 73.6772C32.7355 73.6772 32.0059 73.4197 31.4909 72.9047C30.9759 72.3683 30.7184 71.628 30.7184 70.6838V53.3991C30.7184 52.412 30.9759 51.6717 31.4909 51.1782C32.0059 50.6632 32.7355 50.4057 33.6796 50.4057C34.6453 50.4057 35.3748 50.6632 35.8684 51.1782C36.3834 51.6717 36.6409 52.412 36.6409 53.3991V60.416H36.7053L44.5269 51.7897C44.9346 51.3606 45.3637 51.028 45.8144 50.7919C46.2864 50.5344 46.8122 50.4057 47.3916 50.4057C48.2928 50.4057 48.9366 50.6417 49.3228 51.1138C49.7305 51.5644 49.9129 52.1009 49.87 52.7232C49.8485 53.324 49.6018 53.8819 49.1297 54.3969L41.3403 62.6691V60.2551L49.5159 69.4929C50.0738 70.1152 50.3528 70.7589 50.3528 71.4241C50.3528 72.0679 50.1275 72.6043 49.6769 73.0335C49.2477 73.4627 48.6039 73.6772 47.7456 73.6772C47.016 73.6772 46.4259 73.5378 45.9753 73.2588C45.5461 72.9584 45.0741 72.5185 44.5591 71.9391L36.7053 63.1519H36.6409V70.6838C36.6409 71.628 36.3941 72.3683 35.9006 72.9047C35.407 73.4197 34.6667 73.6772 33.6796 73.6772ZM64.372 73.7416C61.7755 73.7416 59.5653 73.2588 57.7413 72.2932C55.9388 71.3276 54.5655 69.9757 53.6213 68.2376C52.6772 66.4994 52.2051 64.4716 52.2051 62.1541C52.2051 60.3516 52.484 58.7315 53.042 57.2938C53.6213 55.8346 54.4475 54.5901 55.5204 53.5601C56.5933 52.5086 57.9023 51.7146 59.4473 51.1782C61.0137 50.6203 62.784 50.3413 64.7582 50.3413C65.8311 50.3413 66.9255 50.4486 68.0413 50.6632C69.1572 50.8563 70.2515 51.2318 71.3245 51.7897C71.8824 52.0472 72.2579 52.412 72.451 52.8841C72.6656 53.3347 72.73 53.8176 72.6442 54.3326C72.5798 54.8261 72.3974 55.2875 72.097 55.7166C71.818 56.1243 71.4318 56.4033 70.9382 56.5535C70.4447 56.6822 69.8868 56.6071 69.2645 56.3282C68.6207 56.0278 67.9233 55.8025 67.1723 55.6522C66.4212 55.4806 65.6273 55.3947 64.7904 55.3947C63.3527 55.3947 62.151 55.6522 61.1854 56.1672C60.2412 56.6822 59.5331 57.444 59.061 58.4526C58.5889 59.4611 58.3529 60.695 58.3529 62.1541C58.3529 64.3429 58.8894 65.9952 59.9623 67.111C61.0352 68.2268 62.6231 68.7847 64.726 68.7847C65.3698 68.7847 66.0672 68.7204 66.8182 68.5916C67.5907 68.4629 68.3632 68.2805 69.1357 68.0444L68.0413 70.2654V64.7613H65.7882C65.0586 64.7613 64.49 64.5789 64.0823 64.2141C63.696 63.8493 63.5029 63.3343 63.5029 62.6691C63.5029 62.0039 63.696 61.4996 64.0823 61.1563C64.49 60.7915 65.0586 60.6091 65.7882 60.6091H70.552C71.303 60.6091 71.8716 60.813 72.2579 61.2207C72.6656 61.6069 72.8695 62.1756 72.8695 62.9266V70.0401C72.8695 70.6838 72.73 71.231 72.451 71.6816C72.1935 72.1322 71.7751 72.4541 71.1957 72.6472C70.1872 72.9906 69.0928 73.2588 67.9126 73.4519C66.7324 73.6451 65.5522 73.7416 64.372 73.7416Z" fill="#D51A49"/>
              </g>
              <defs>
              <clipPath id="clip0_124_173">
              <rect width="103" height="103" fill="white"/>
              </clipPath>
              </defs>
            </svg>