<svg width="37" height="37" viewBox="0 0 37 37" fill="none" xmlns="http://www.w3.org/2000/svg">
<path d="M27.7411 0H9.25892C4.15283 0 0 4.33728 0 9.67015V27.3298C0 32.6627 4.15283 37 9.25892 37H27.7411C32.8472 37 37 32.6627 37 27.3298V9.67015C37 4.33728 32.8472 0 27.7411 0ZM3.26585 9.67015C3.26585 6.21843 5.95398 3.41091 9.25892 3.41091H27.7411C31.046 3.41091 33.7342 6.21843 33.7342 9.67015V27.3298C33.7342 30.7816 31.046 33.5891 27.7411 33.5891H9.25892C5.95398 33.5891 3.26585 30.7816 3.26585 27.3298V9.67015Z" fill="white"/>
<path d="M18.4992 27.4964C23.2484 27.4964 27.1124 23.4609 27.1124 18.5007C27.1124 13.5405 23.2484 9.50488 18.4992 9.50488C13.7499 9.50488 9.88593 13.5405 9.88593 18.5007C9.88593 23.4609 13.7499 27.4964 18.4992 27.4964ZM18.4992 12.9176C21.4473 12.9176 23.8448 15.4216 23.8448 18.5007C23.8448 21.5797 21.4473 24.0838 18.4992 24.0838C15.5511 24.0838 13.1535 21.5797 13.1535 18.5007C13.1535 15.4216 15.5511 12.9176 18.4992 12.9176Z" fill="white"/>
<path d="M27.9111 10.9573C29.1905 10.9573 30.2321 9.8694 30.2321 8.53308C30.2321 7.19676 29.1905 6.10889 27.9111 6.10889C26.6316 6.10889 25.59 7.19676 25.59 8.53308C25.59 9.8694 26.6316 10.9573 27.9111 10.9573Z" fill="white"/>
</svg>
