<svg width="103" height="103" viewBox="0 0 103 103" fill="none" xmlns="http://www.w3.org/2000/svg">
              <path d="M51.5 0C41.3143 0 31.3573 3.02042 22.8882 8.67932C14.419 14.3382 7.81814 22.3814 3.92023 31.7918C0.0223142 41.2022 -0.997558 51.5571 0.989581 61.5472C2.97672 71.5372 7.88162 80.7136 15.084 87.916C22.2864 95.1184 31.4629 100.023 41.4529 102.01C51.4429 103.998 61.7978 102.978 71.2082 99.0798C80.6186 95.1819 88.6618 88.581 94.3207 80.1119C99.9796 71.6427 103 61.6857 103 51.5C102.985 37.8459 97.5546 24.7552 87.8997 15.1003C78.2448 5.44539 65.1541 0.014768 51.5 0V0ZM51.5 94.4167C43.0119 94.4167 34.7144 91.8997 27.6568 87.1839C20.5992 82.4682 15.0985 75.7655 11.8502 67.9235C8.60193 60.0815 7.75204 51.4524 9.40799 43.1274C11.0639 34.8024 15.1514 27.1553 21.1534 21.1533C27.1554 15.1513 34.8024 11.0639 43.1274 9.40797C51.4524 7.75202 60.0815 8.60191 67.9235 11.8502C75.7655 15.0984 82.4682 20.5992 87.1839 27.6568C91.8997 34.7144 94.4167 43.0119 94.4167 51.5C94.4042 62.8784 89.8786 73.7871 81.8329 81.8329C73.7872 89.8786 62.8784 94.4042 51.5 94.4167Z" fill="#D51A49"/>
              <path d="M51.4993 25.75C50.3611 25.75 49.2695 26.2022 48.4647 27.007C47.6598 27.8118 47.2077 28.9034 47.2077 30.0417V48.6031L32.7404 57.6671C31.773 58.2715 31.0852 59.2354 30.8284 60.3469C30.5717 61.4584 30.767 62.6264 31.3714 63.5939C31.9758 64.5613 32.9398 65.2491 34.0513 65.5059C35.1628 65.7626 36.3307 65.5673 37.2982 64.9629L53.7782 54.6629C54.4009 54.2728 54.9129 53.7293 55.2654 53.0846C55.6178 52.4398 55.7988 51.7154 55.791 50.9807V30.0417C55.791 28.9034 55.3388 27.8118 54.534 27.007C53.7291 26.2022 52.6375 25.75 51.4993 25.75Z" fill="#D51A49"/>
            </svg>