<svg width="205" height="205" viewBox="0 0 205 205" fill="none" xmlns="http://www.w3.org/2000/svg">
<path fill-rule="evenodd" clip-rule="evenodd" d="M49.7333 82.5C49.7333 71.178 58.9265 62 70.2667 62H102V86.2273H49.7333V82.5ZM25.4667 88.0909C21.3429 88.0909 18 91.4287 18 95.5455V104.864C18 108.98 21.3429 112.318 25.4667 112.318H178.533C182.657 112.318 186 108.98 186 104.864V95.5455C186 91.4287 182.657 88.0909 178.533 88.0909H25.4667ZM133.733 62C145.074 62 154.267 71.178 154.267 82.5V86.2273H103.867V62H133.733ZM59.0667 116.045H90.8L102.955 122.216L115.388 116.045H144.933L118.013 129.86L145.867 144H116L102.948 137.591L90.4588 144H59.0667L87.3793 129.947L59.0667 116.045Z" fill="#D51A49"/>
<path fill-rule="evenodd" clip-rule="evenodd" d="M102.5 192C151.929 192 192 151.929 192 102.5C192 53.0705 151.929 13 102.5 13C53.0705 13 13 53.0705 13 102.5C13 151.929 53.0705 192 102.5 192ZM102.5 205C159.109 205 205 159.109 205 102.5C205 45.8908 159.109 0 102.5 0C45.8908 0 0 45.8908 0 102.5C0 159.109 45.8908 205 102.5 205Z" fill="#D51A49"/>
</svg>
