<svg width="103" height="103" viewBox="0 0 103 103" fill="none" xmlns="http://www.w3.org/2000/svg">
              <g clip-path="url(#clip0_124_187)">
              <path d="M64.3767 103H38.6267V87.9234C34.1516 86.34 30.0067 83.9453 26.3998 80.8593L13.3359 88.4083L0.460938 66.0917L13.5205 58.5598C12.6626 53.8924 12.6626 49.1076 13.5205 44.4402L0.460938 36.9083L13.3359 14.5917L26.3998 22.1407C30.0067 19.0547 34.1516 16.66 38.6267 15.0766V0H64.3767V15.0766C68.8518 16.66 72.9967 19.0547 76.6037 22.1407L89.6675 14.5917L102.543 36.9083L89.483 44.4402C90.3408 49.1076 90.3408 53.8924 89.483 58.5598L102.543 66.0917L89.6675 88.4083L76.6037 80.8636C72.9964 83.9481 68.8515 86.3413 64.3767 87.9234V103ZM47.2101 94.4167H55.7934V81.4258L59.0164 80.5932C64.3038 79.2235 69.1164 76.4351 72.9343 72.5292L75.2647 70.1559L86.5217 76.6577L90.8134 69.2246L79.5692 62.7313L80.4533 59.5297C81.9067 54.2636 81.9067 48.7021 80.4533 43.436L79.5692 40.2344L90.8134 33.7411L86.5217 26.3079L75.2647 32.827L72.9343 30.4708C69.1143 26.5712 64.3019 23.7888 59.0164 22.424L55.7934 21.5742V8.58333H47.2101V21.5742L43.987 22.4068C38.6996 23.7765 33.887 26.5649 30.0691 30.4708L27.7388 32.8441L16.4817 26.3251L12.1901 33.7583L23.4342 40.2515L22.5501 43.4531C21.0968 48.7193 21.0968 54.2807 22.5501 59.5469L23.4342 62.7485L12.1901 69.2418L16.4817 76.6749L27.7388 70.173L30.0691 72.5463C33.8891 76.446 38.7015 79.2284 43.987 80.5932L47.2101 81.4258V94.4167ZM51.5017 68.6667C48.1065 68.6667 44.7875 67.6599 41.9644 65.7736C39.1414 63.8873 36.9411 61.2062 35.6418 58.0694C34.3425 54.9326 34.0025 51.481 34.6649 48.1509C35.3273 44.8209 36.9623 41.7621 39.3631 39.3613C41.7639 36.9605 44.8227 35.3256 48.1527 34.6632C51.4827 34.0008 54.9343 34.3408 58.0711 35.6401C61.2079 36.9394 63.889 39.1397 65.7753 41.9627C67.6616 44.7858 68.6684 48.1048 68.6684 51.5C68.6684 56.0529 66.8598 60.4193 63.6404 63.6387C60.421 66.858 56.0546 68.6667 51.5017 68.6667ZM51.5017 42.9167C49.8041 42.9167 48.1446 43.4201 46.7331 44.3632C45.3216 45.3064 44.2214 46.6469 43.5718 48.2153C42.9221 49.7837 42.7521 51.5095 43.0833 53.1745C43.4145 54.8395 44.232 56.3689 45.4324 57.5693C46.6328 58.7697 48.1622 59.5872 49.8272 59.9184C51.4922 60.2496 53.218 60.0796 54.7864 59.43C56.3548 58.7803 57.6954 57.6802 58.6385 56.2686C59.5817 54.8571 60.0851 53.1976 60.0851 51.5C60.0851 49.2236 59.1807 47.0404 57.5711 45.4307C55.9614 43.821 53.7782 42.9167 51.5017 42.9167Z" fill="#D51A49"/>
              </g>
              <defs>
              <clipPath id="clip0_124_187">
              <rect width="103" height="103" fill="white"/>
              </clipPath>
              </defs>
            </svg>