<svg width="236" height="81" viewBox="0 0 236 81" fill="none" xmlns="http://www.w3.org/2000/svg">
<g clip-path="url(#clip0_116_123)">
<path d="M73.5069 34C77.2281 34 80.2841 34.7543 82.6778 36.2571C85.0685 37.7628 86.2921 39.9932 86.3485 42.9452V43.456H77.6053V43.2897C77.6053 42.4433 77.2964 41.7394 76.6787 41.1752C76.061 40.6139 75.1166 40.3317 73.8514 40.3317C72.607 40.3317 71.6537 40.5159 70.9885 40.8782C70.3292 41.2435 70.0025 41.6949 70.0025 42.2324C70.0025 42.9927 70.4539 43.557 71.3567 43.9193C72.2596 44.2846 73.7088 44.6648 75.7046 45.0597C78.0389 45.5349 79.9604 46.0339 81.4661 46.5566C82.9778 47.0792 84.2964 47.9346 85.422 49.1225C86.5446 50.3045 87.1237 51.9023 87.1563 53.9218C87.1563 57.3609 85.9922 59.909 83.6638 61.5721C81.3414 63.2353 78.2408 64.0668 74.3622 64.0668C69.8243 64.0668 66.2961 63.3065 63.7777 61.786C61.2592 60.2654 60 57.5777 60 53.7198H68.8264C68.8264 55.187 69.2065 56.164 69.9668 56.6541C70.7271 57.1471 71.9061 57.3906 73.5069 57.3906C74.6948 57.3906 75.6719 57.2659 76.4411 57.0104C77.2162 56.758 77.6053 56.2353 77.6053 55.4424C77.6053 54.7474 77.1717 54.2247 76.3104 53.8743C75.4551 53.5179 74.0563 53.1437 72.117 52.7457C69.756 52.2409 67.7988 51.7122 66.2486 51.1658C64.6953 50.6134 63.3411 49.7016 62.1858 48.4335C61.0365 47.1683 60.4633 45.4518 60.4633 43.2897C60.4633 40.106 61.6928 37.7628 64.1578 36.2571C66.6198 34.7543 69.7352 34 73.5069 34Z" fill="white"/>
<path d="M108.061 63.5561V52.532H97.7974V63.5561H88.4602V34.499H97.7974V45.0955H108.061V34.499H117.387V63.5561H108.061Z" fill="white"/>
<path d="M139.772 63.5561L138.548 59.4577H128.367L127.144 63.5561H117.605L128.201 34.499H139.047L149.655 63.5561H139.772ZM130.316 52.9596H136.6L133.559 42.6127H133.392L130.316 52.9596Z" fill="white"/>
<path d="M169.159 34.499C170.623 34.499 171.966 34.8049 173.186 35.4137C174.413 36.0166 175.387 36.869 176.109 37.9678C176.827 39.0607 177.19 40.2843 177.19 41.6386C177.19 45.2113 175.568 47.4654 172.331 48.398V48.5643C176.02 49.4136 177.867 51.8311 177.867 55.8226C177.867 57.3432 177.49 58.6915 176.738 59.8616C175.993 61.0258 174.971 61.9346 173.673 62.582C172.382 63.2324 170.965 63.5561 169.421 63.5561H149.82V34.499H169.159ZM159.157 45.8201H165.572C166.189 45.8201 166.7 45.6033 167.104 45.1667C167.514 44.7331 167.722 44.1897 167.722 43.5393V43.1116C167.722 42.4939 167.511 41.9682 167.092 41.5316C166.671 41.098 166.166 40.8783 165.572 40.8783H159.157V45.8201ZM159.157 56.7967H166.249C166.867 56.7967 167.377 56.5799 167.781 56.1433C168.191 55.7097 168.399 55.1663 168.399 54.5159V54.1001C168.399 53.4526 168.191 52.9092 167.781 52.4726C167.377 52.039 166.867 51.8192 166.249 51.8192H159.157V56.7967Z" fill="white"/>
<path d="M197.371 63.5561H188.034V52.2825L176.511 34.499H187.238L192.809 44.1689H192.975L198.559 34.499H208.728L197.371 52.2825V63.5561Z" fill="white"/>
<path d="M225.582 41.9355V63.5561H216.245V41.9355H206.706V34.499H235.086V41.9355H225.582Z" fill="white"/>
<mask id="mask0_116_123" style="mask-type:luminance" maskUnits="userSpaceOnUse" x="0" y="0" width="50" height="81">
<path d="M50 0H0V81H50V0Z" fill="white"/>
</mask>
<g mask="url(#mask0_116_123)">
<path fill-rule="evenodd" clip-rule="evenodd" d="M9.66411 27.2219C10.0627 27.7065 10.8222 27.6396 11.1304 27.0927L26.1412 0.45484C26.5012 -0.18383 27.4326 -0.141152 27.7329 0.527767L40.6288 29.2551C40.8586 29.767 41.4963 29.9429 41.955 29.621L48.5951 24.9617C49.1871 24.5464 50 24.9708 50 25.6949V30.2411V32.0311V55.7495V57.5395H49.9371C49.0214 70.5447 38.2067 80.8103 25 80.8103C11.7933 80.8103 0.978411 70.5447 0.0627929 57.5395H0V55.7495V32.0311V30.2411V17.9654C0 17.126 1.049 16.7484 1.58173 17.396L9.66411 27.2219ZM27.7084 37.3768L26.3393 39.6255V42.3051H37.9464C39.9189 42.3051 41.5179 43.908 41.5179 45.8854V62.8547C41.5179 64.8318 39.9189 66.4348 37.9464 66.4348H12.5C10.5275 66.4348 8.92857 64.8318 8.92857 62.8547V45.8854C8.92857 43.908 10.5275 42.3051 12.5 42.3051H24.1071V39.6255L22.738 37.3768C22.5564 37.0786 22.7705 36.6961 23.1191 36.6961H27.3274C27.6759 36.6961 27.89 37.0786 27.7084 37.3768Z" fill="white"/>
<path d="M24.3846 58.2676L21.3282 57.7838C21.1108 57.7494 20.8901 57.8214 20.7345 57.9776C20.4924 58.2202 20.4651 58.6046 20.6705 58.8789L20.7688 59.0105C20.9056 59.1931 21.1082 59.3157 21.3335 59.351L24.2276 59.8093C24.8873 59.9136 25.5593 59.9136 26.219 59.8093L29.0009 59.3689C29.2918 59.3229 29.5425 59.1389 29.6742 58.8749L29.7397 58.7433C29.8455 58.5312 29.8298 58.2788 29.6986 58.0814C29.5558 57.8666 29.3015 57.7552 29.0472 57.7955L26.062 58.2676C25.5063 58.3558 24.9403 58.3558 24.3846 58.2676Z" fill="white"/>
<path d="M15.4018 56.3868C16.7578 56.3868 17.8571 55.2848 17.8571 53.9254C17.8571 52.5661 16.7578 51.4641 15.4018 51.4641C14.0457 51.4641 12.9464 52.5661 12.9464 53.9254C12.9464 55.2848 14.0457 56.3868 15.4018 56.3868Z" fill="white"/>
<path d="M35.0446 56.3868C36.4006 56.3868 37.4999 55.2848 37.4999 53.9254C37.4999 52.5661 36.4006 51.4641 35.0446 51.4641C33.6885 51.4641 32.5892 52.5661 32.5892 53.9254C32.5892 55.2848 33.6885 56.3868 35.0446 56.3868Z" fill="white"/>
</g>
</g>
<defs>
<clipPath id="clip0_116_123">
<rect width="236" height="81" fill="white"/>
</clipPath>
</defs>
</svg>